<svg width="13" height="13" viewBox="0 0 13 13" fill="none" xmlns="http://www.w3.org/2000/svg">
<path id="Shape Copy 2" fill-rule="evenodd" clip-rule="evenodd" d="M9.90523 7.24987L5.88253 11.2196C5.58575 11.5125 5.58594 11.9873 5.88253 12.2803C6.17931 12.5732 6.66039 12.5732 6.95737 12.2803L12.2774 7.0303C12.5742 6.73742 12.5742 6.26248 12.2776 5.96979L6.95756 0.719751C6.80916 0.573313 6.6146 0.5 6.42004 0.5C6.22567 0.5 6.03111 0.573313 5.88253 0.719939C5.58575 1.01263 5.58594 1.48757 5.88253 1.78026L9.90542 5.74985L1.26 5.74985C0.840292 5.74985 0.49981 6.08586 0.5 6.49986C0.5 6.91405 0.840292 7.24987 1.26 7.24987L9.90523 7.24987Z" fill="white"/>
</svg>
