<svg width="94" height="118" viewBox="0 0 94 118" fill="none" xmlns="http://www.w3.org/2000/svg">
<path fill-rule="evenodd" clip-rule="evenodd" d="M28.3683 52.8277C28.645 50.5812 30.6134 48.9948 32.764 49.2838C34.9148 49.5731 36.4337 51.6284 36.157 53.8748C35.8801 56.1213 33.9123 57.7077 31.7617 57.4188C29.6109 57.1295 28.0917 55.0742 28.3683 52.8277ZM44.5714 54.8839C44.8481 52.6378 46.8162 51.051 48.967 51.3403C51.1179 51.6293 52.6368 53.6846 52.3601 55.9311C52.0831 58.1775 50.1153 59.764 47.9645 59.475C45.8139 59.1857 44.2944 57.1304 44.5714 54.8839ZM34.5891 71.9013L49.1853 73.8928C55.8363 74.7965 61.9531 69.8866 62.8217 62.9403L62.8967 62.3413C63.7653 55.3956 59.0613 49.0061 52.4107 48.0983L37.8144 46.1075C31.1644 45.2025 25.0469 50.1133 24.1783 57.0597L24.1031 57.659C23.6846 61.0045 24.5493 64.3346 26.5375 67.0358C28.5258 69.7363 31.3854 71.4642 34.5891 71.9013Z" fill="#A3A2C3"/>
<mask id="mask0_0_876" style="mask-type:alpha" maskUnits="userSpaceOnUse" x="0" y="25" width="90" height="93">
<path fill-rule="evenodd" clip-rule="evenodd" d="M0 25.2032H89.9174V117.676H0V25.2032Z" fill="white"/>
</mask>
<g mask="url(#mask0_0_876)">
<path fill-rule="evenodd" clip-rule="evenodd" d="M79.0975 66.4989C78.0492 71.3169 75.402 79.6559 69.0892 84.7214C65.6097 87.5137 61.4904 88.9201 56.8123 88.9201C56.1789 88.9201 55.5343 88.8916 54.8805 88.8397C54.3734 89.9481 53.2617 90.7208 51.9715 90.7208H46.4799C44.7135 90.7208 43.2766 89.2755 43.2766 87.4987C43.2766 85.7222 44.7135 84.2765 46.4799 84.2765H51.9715C53.3489 84.2765 54.5223 85.1572 54.9741 86.3865C59.86 86.7904 64.0897 85.5893 67.5589 82.8087C73.1956 78.2915 75.6653 70.584 76.6721 66.081C75.4566 65.4209 74.6307 64.1286 74.6307 62.6418C74.6307 60.4848 76.3694 58.7359 78.5138 58.7359C80.6583 58.7359 82.397 60.4848 82.397 62.6418C82.397 64.5991 80.9643 66.2151 79.0975 66.4989M81.3951 86.2242C80.9588 86.7612 80.1741 87.1006 79.2479 87.2958C80.2257 86.1521 81.1364 84.9488 81.9735 83.6919C82.018 85.241 81.6126 85.9563 81.3951 86.2242M41.9171 99.2906C42.5062 99.437 43.1008 99.5692 43.7003 99.6871C43.1008 99.5692 42.5062 99.437 41.9171 99.2906M42.7131 98.42C42.6295 98.5314 42.5236 98.6627 42.3933 98.8079C42.5236 98.6627 42.6295 98.5314 42.7131 98.42M86.9684 72.6794C87.8195 69.5293 88.2766 66.2163 88.2766 62.7953C88.2766 42.0337 71.5442 25.2032 50.9037 25.2032C36.388 25.2032 23.8051 33.5274 17.6159 45.6889C22.0015 39.7263 29.387 36.2595 37.2026 37.2873L51.9934 39.2304C63.4579 40.7368 71.5668 51.3442 70.0694 62.876L69.9934 63.4606C68.616 74.0689 59.5803 81.8218 49.2166 81.8218C48.315 81.8218 47.4037 81.7629 46.4864 81.6426H46.486L31.6955 79.6991C26.1601 78.9721 21.2269 76.1062 17.805 71.6299C15.4278 68.5203 13.9872 64.901 13.5698 61.1148C13.5454 61.6721 13.5308 62.2318 13.5308 62.7953C13.5308 66.3326 14.0174 69.7552 14.9253 73.0004C9.84537 72.9998 8.58903 71.6151 8.31293 71.1472C7.4413 69.6702 8.63907 66.4087 9.71632 64.6804C10.6718 63.1736 10.3576 61.2225 9.05886 60.0825C8.81846 59.3024 8.31385 58.6006 7.57432 58.1289L5.443 56.7692C3.78974 55.7148 1.59985 56.2079 0.55127 57.8709C0.411541 58.0927 0.29927 58.3241 0.213236 58.5613C-0.345374 60.1009 0.214151 61.8771 1.64652 62.791L2.45225 63.305C2.27683 63.7033 2.09957 64.1369 1.93056 64.6021C0.907304 67.4245 0.204999 71.3485 2.19995 74.7585C4.53354 78.7463 9.64188 80.5277 17.3834 80.0533C17.4832 80.0471 17.5805 80.0342 17.6775 80.0204C22.4618 89.3387 31.007 96.3848 41.2935 99.1304V99.8135C40.0881 100.73 38.12 101.755 35.0341 102.252C32.9314 102.59 31.4673 104.535 31.7132 106.663L32.1477 110.422L32.5775 114.139C32.8131 116.176 34.5313 117.676 36.5214 117.676C36.6748 117.676 36.8298 117.667 36.9857 117.649C39.1665 117.394 40.7288 115.409 40.4753 113.215L40.0991 109.959L40.0201 109.275C40.4527 109.139 40.8768 108.981 41.2935 108.81L41.7435 108.723C43.034 108.349 44.3739 107.643 44.3929 107.634C44.7175 107.47 45.1116 107.603 45.2739 107.929C45.4363 108.255 45.3045 108.652 44.9802 108.816C44.9155 108.848 43.7653 109.424 42.5898 109.868C42.1773 110.023 41.7618 110.163 41.3887 110.257C41.357 110.264 41.3252 110.265 41.2935 110.268V114.304C41.2935 116.109 42.7485 117.572 44.5433 117.572H52.1573C55.1203 117.572 57.3245 114.304 55.4006 111.156C54.9683 110.448 54.2837 109.953 53.5067 109.73C53.2058 109.643 52.8928 109.594 52.5731 109.594H49.2257V103.157C50.2002 102.146 51.0062 101.177 51.6176 100.378C57.2922 100.271 62.6568 98.8923 67.4423 96.5125C67.7685 97.9852 68.9089 99.2102 70.4709 99.5539C70.7571 99.6165 71.0429 99.6469 71.3242 99.6469C73.152 99.6469 74.7976 98.3712 75.2043 96.5017L75.4328 95.4501C75.9173 95.4829 76.4402 95.5044 76.9924 95.5044C80.3419 95.5044 84.7226 94.7403 87.5276 91.3149C90.8085 87.309 90.7105 81.2099 87.2381 73.1873C87.1606 73.008 87.0678 72.8408 86.9684 72.6794" fill="#A3A2C3"/>
</g>
<path fill-rule="evenodd" clip-rule="evenodd" d="M63.9253 15.2586C53.0066 13.3342 46.08 10.2029 43.5748 8.31163C46.5761 7.39111 54.1561 6.81674 65.0747 8.74141C75.9934 10.6661 82.92 13.7971 85.4252 15.6884C82.4242 16.6089 74.8439 17.1833 63.9253 15.2586ZM85.1215 6.94049C80.2064 4.63475 73.5468 2.6681 66.3695 1.40296C59.1919 0.137816 52.2607 -0.291046 46.8531 0.195406C39.7096 0.837781 35.7524 3.06542 35.0908 6.81643C34.4292 10.5674 37.3855 14.0137 43.8785 17.0595C48.7936 19.3653 55.4532 21.3319 62.6308 22.597C69.8084 23.8622 76.7393 24.291 82.1469 23.8046C89.2904 23.1622 93.2479 20.9346 93.9092 17.1836C94.5708 13.4329 91.6145 9.98664 85.1215 6.94049Z" fill="#A3A2C3"/>
</svg>
